<svg xmlns="http://www.w3.org/2000/svg" viewBox="0 0 72 92" fill="none" aria-hidden="true">
  <defs>
    <linearGradient id="gold" x1="16" y1="12" x2="56" y2="58" gradientUnits="userSpaceOnUse">
      <stop stop-color="#FFF4C2"/>
      <stop offset="0.45" stop-color="#FFD166"/>
      <stop offset="1" stop-color="#FFAE42"/>
    </linearGradient>
    <filter id="glow" x="-15%" y="-10%" width="130%" height="130%">
      <feGaussianBlur stdDeviation="2" result="b"/>
      <feMerge>
        <feMergeNode in="b"/>
        <feMergeNode in="SourceGraphic"/>
      </feMerge>
    </filter>
  </defs>
  <g filter="url(#glow)">
    <path fill-rule="evenodd" clip-rule="evenodd" d="M36 10a24 24 0 1 1 0 48 24 24 0 0 1 0-48Zm6 3a19.5 19.5 0 1 0 0 42 19.5 19.5 0 0 0 0-42Z" fill="url(#gold)"/>
    <path d="M52 18.5 53.4 22.2 57.2 22.7 54.2 25.4 55.1 29.2 52 27.1 48.9 29.2 49.8 25.4 46.8 22.7 50.6 22.2Z" fill="#FFD166"/>
    <path d="M57.5 28 58.2 30.2 60.5 30.6 58.9 32.2 59.4 34.6 57.5 33.4 55.6 34.6 56.1 32.2 54.5 30.6 56.8 30.2Z" fill="#FFE08A"/>
  </g>
  <text x="36" y="84" text-anchor="middle" fill="#FFFFFF" font-family="'IBM Plex Sans Arabic', Arial, sans-serif" font-size="20" font-weight="700">&#x646;&#x648;&#x631;</text>
</svg>
